<?xml version="1.0" encoding="utf-8"?>
<!-- Generator: Adobe Illustrator 24.1.0, SVG Export Plug-In . SVG Version: 6.00 Build 0)  -->
<svg version="1.1" id="Layer_1" xmlns="http://www.w3.org/2000/svg" xmlns:xlink="http://www.w3.org/1999/xlink" x="0px" y="0px"
	 viewBox="0 0 2007.5 1008.5" style="enable-background:new 0 0 2007.5 1008.5;" xml:space="preserve" width="1in" height="1in">
<g>
	<polygon fill="#5CAADD" points="330.67,458.41 502.53,359.29 386.19,292.03 216.3,390.04 	"/>
	<polygon fill="#6D8AC5" points="330.67,458.41 330.61,649.68 216.23,583.58 216.3,390.04 	"/>
	<polygon fill="#7A4596" points="503.04,551.1 331.18,650.25 447.52,717.48 617.39,619.5 	"/>
	<polygon fill="#5F53A2" points="503.04,551.1 503.1,359.86 617.48,425.95 617.39,619.5 	"/>
</g>
<g>
	<path fill="#111316" d="M720.87,605.55V437.41h107.45v22.91h-81.94v49.12h69.9v22.67h-69.9v50.54h81.94v22.91H720.87z"/>
	<path fill="#111316" d="M894.23,605.55c-22.91,0-32.83-15.35-32.83-33.06V437.41h24.09v133.66c0,9.21,3.31,13.93,12.99,13.93h10.63
		v20.55H894.23z"/>
	<path fill="#111316" d="M953.98,552.66c0,20.54,10.86,33.53,30.46,33.53c13.46,0,20.55-3.77,29.05-12.28l15.35,14.41
		c-12.28,12.28-23.85,18.66-44.88,18.66c-29.99,0-53.84-15.83-53.84-61.4c0-38.73,20.07-61.16,50.78-61.16
		c32.12,0,50.78,23.61,50.78,57.62v10.63H953.98z M1004.52,519.59c-3.78-8.97-12.28-15.11-23.61-15.11
		c-11.33,0-20.07,6.14-23.85,15.11c-2.36,5.43-2.83,8.97-3.07,16.3h53.84C1007.59,528.56,1006.88,525.02,1004.52,519.59z"/>
	<path fill="#111316" d="M1209.99,605.55v-72.97c0-18.66-10.63-26.69-24.09-26.69c-12.99,0-24.79,8.27-24.79,25.51v74.15h-24.09v-72.97
		c0-18.66-10.63-26.69-24.09-26.69c-13.46,0-24.79,8.27-24.79,26.69v72.97h-24.09V485.82h23.61v12.05
		c8.03-8.74,19.84-13.46,31.88-13.46c14.88,0,26.45,5.9,34.01,17.47c9.68-11.81,21.73-17.47,37.55-17.47
		c12.28,0,23.14,4.01,30.23,10.86c9.21,8.97,12.75,20.31,12.75,33.77v76.52H1209.99z"/>
	<path fill="#111316" d="M1289.13,552.66c0,20.54,10.86,33.53,30.46,33.53c13.46,0,20.55-3.77,29.05-12.28l15.35,14.41
		c-12.28,12.28-23.85,18.66-44.88,18.66c-29.99,0-53.84-15.83-53.84-61.4c0-38.73,20.07-61.16,50.78-61.16
		c32.12,0,50.78,23.61,50.78,57.62v10.63H1289.13z M1339.66,519.59c-3.78-8.97-12.28-15.11-23.61-15.11s-20.07,6.14-23.85,15.11
		c-2.36,5.43-2.83,8.97-3.07,16.3h53.84C1342.74,528.56,1342.02,525.02,1339.66,519.59z"/>
	<path fill="#111316" d="M1472.16,605.55v-72.97c0-18.66-10.63-26.69-24.09-26.69c-13.46,0-24.79,8.27-24.79,26.69v72.97h-24.09V485.82
		h23.61v12.05c8.27-8.97,19.84-13.46,31.88-13.46c12.28,0,22.43,4.01,29.52,10.86c9.21,8.97,12.05,20.31,12.05,33.77v76.52H1472.16z
		"/>
	<path fill="#111316" d="M1569.71,605.55c-22.43,0-32.83-16.06-32.83-33.3v-65.89h-13.69v-18.42h13.69v-36.37h24.09v36.37h23.15v18.42
		h-23.15v64.7c0,8.74,4.25,13.93,13.23,13.93h9.92v20.55H1569.71z"/>
	<path fill="#111316" d="M1659.22,606.97c-19.6,0-36.13-3.31-50.3-17.24l15.83-15.83c9.68,9.92,22.67,12.52,34.48,12.52
		c14.65,0,26.21-5.19,26.21-16.53c0-8.03-4.49-13.22-16.06-14.17l-19.13-1.65c-22.43-1.89-35.42-12.04-35.42-33.06
		c0-23.38,20.07-36.6,45.11-36.6c17.95,0,33.3,3.77,44.4,13.46l-15.11,15.35c-7.56-6.37-18.19-8.74-29.52-8.74
		c-14.41,0-21.73,6.38-21.73,15.35c0,7.09,3.78,12.51,16.53,13.69l18.89,1.65c22.43,1.89,35.66,12.52,35.66,33.77
		C1709.05,593.98,1687.79,606.97,1659.22,606.97z"/>
</g>
</svg>
